Coordinates
version=1
nRows=8
nColumns=27
inDegrees=yes

Units are S.I. units (second, meters, Newtons, ...)
If the header above contains a line with 'inDegrees', this indicates whether rotational values are in degrees (yes) or radians (no).

endheader
time	pelvis_rotation	pelvis_tilt	pelvis_list	pelvis_tx	pelvis_ty	pelvis_tz	hip_flexion_r	hip_adduction_r	hip_rotation_r	knee_angle_r	knee_rotation_r	knee_adduction_r	knee_angle_r_beta	ankle_angle_r	subtalar_angle_r	mtp_angle_r	hip_flexion_l	hip_adduction_l	hip_rotation_l	knee_angle_l	knee_rotation_l	knee_adduction_l	knee_angle_l_beta	ankle_angle_l	subtalar_angle_l	mtp_angle_l
      3.25500000	      1.64201130	    -28.28925674	      7.37153108	      0.07176313	      0.82280365	     -1.17833060	     51.56911154	    -34.70336315	    -23.72201463	     30.45039013	      0.00000000	      5.91637890	      0.53145957	     -4.16305763	      0.00000000	      0.00000000	     45.40632364	    -16.18148731	    -13.75531287	     19.60593533	      0.00000000	      2.06283589	      0.34218812	     -8.10975805	      0.00000000	      0.00000000
      3.26000000	      1.64946338	    -28.69308967	      7.45053059	      0.07033682	      0.82207517	     -1.17826037	     52.47510801	    -34.79695343	    -23.29397755	     30.92700136	      0.00000000	      5.93844818	      0.53977800	     -4.09039007	      0.00000000	      0.00000000	     46.18938051	    -16.28056589	    -13.94467522	     20.14704401	      0.00000000	      1.77082000	      0.35163225	     -7.98030759	      0.00000000	      0.00000000
      3.26500000	      1.94254833	    -29.00913817	      7.27023854	      0.06919655	      0.82144123	     -1.17804029	     52.80892012	    -34.84230571	    -23.67876756	     31.22353198	      0.00000000	      6.08079577	      0.54495344	     -4.05222562	      0.00000000	      0.00000000	     47.10437293	    -16.47160351	    -13.59690411	     20.74869499	      0.00000000	      1.51576311	      0.36213304	     -7.83402394	      0.00000000	      0.00000000
      3.27000000	      2.03211731	    -29.75391901	      7.65514737	      0.06695174	      0.82032331	     -1.17825677	     54.47641834	    -35.17618724	    -22.75163334	     31.98422810	      0.00000000	      5.99429909	      0.55823009	     -3.96625415	      0.00000000	      0.00000000	     48.27970672	    -16.33324728	    -13.68132021	     21.36465606	      0.00000000	      1.50622134	      0.37288359	     -7.71857760	      0.00000000	      0.00000000
      3.27500000	      1.57219793	    -30.88902110	      7.53831891	      0.06382596	      0.81892230	     -1.17760532	     56.64737458	    -34.64865118	    -20.89597756	     32.65294569	      0.00000000	      5.02059636	      0.56990141	     -3.89831119	      0.00000000	      0.00000000	     50.00933343	    -16.93773026	    -14.15816847	     22.42235192	      0.00000000	      1.09422309	      0.39134387	     -7.45377511	      0.00000000	      0.00000000
      3.28000000	      1.73194250	    -29.83814424	      7.76591543	      0.06540682	      0.81892838	     -1.17780505	     55.44659033	    -35.26495064	    -21.99916535	     32.76509740	      0.00000000	      6.21727202	      0.57185883	     -3.78361788	      0.00000000	      0.00000000	     48.76442975	    -16.67357211	    -14.84878055	     22.18813838	      0.00000000	      0.41553161	      0.38725607	     -7.45190255	      0.00000000	      0.00000000
      3.28500000	      1.61563094	    -31.14278675	      7.63082174	      0.06196535	      0.81743584	     -1.17727336	     57.64032846	    -34.88268606	    -20.59874437	     33.48504918	      0.00000000	      5.31965322	      0.58442436	     -3.73803629	      0.00000000	      0.00000000	     50.86766022	    -17.14838394	    -14.62841423	     23.27074031	      0.00000000	      0.40263050	      0.40615104	     -7.24924043	      0.00000000	      0.00000000
      3.29000000	      1.89734511	    -30.00435359	      7.40799464	      0.06386103	      0.81754644	     -1.17705460	     55.77940568	    -35.22871734	    -22.39924968	     33.34214210	      0.00000000	      6.48108918	      0.58193016	     -3.62949128	      0.00000000	      0.00000000	     49.77714325	    -17.19565835	    -14.91037045	     23.18362722	      0.00000000	     -0.43043052	      0.40463063	     -7.16827431	      0.00000000	      0.00000000
